<svg viewBox="0 0 1271 770" fill="none" xmlns="http://www.w3.org/2000/svg"><rect x="921.297" y="116" width="371.745" height="689.798" rx="48.8571" transform="rotate(75 921.297 116)" fill="#EDF8FD"/><rect x="341.859" y="203.547" width="588.788" height="362.517" rx="43.3261" fill="#D1F1FF"/><rect x="689.508" y="314.37" width="201.106" height="34.94" rx="17.47" fill="#EDF8FD"/><rect x="689.508" y="372.402" width="201.106" height="34.94" rx="17.47" fill="#EDF8FD"/><circle cx="727.173" cy="454.043" r="17.47" fill="#EDF8FD"/><circle cx="790.064" cy="454.043" r="17.47" fill="#EDF8FD"/><circle cx="852.954" cy="454.043" r="17.47" fill="#0037C5"/><circle cx="727.173" cy="509.947" r="17.47" fill="#EDF8FD"/><circle cx="790.064" cy="509.947" r="17.47" fill="#EDF8FD"/><circle cx="852.954" cy="509.947" r="17.47" fill="#EDF8FD"/><rect x="371.398" y="235.265" width="529.709" height="34.94" rx="7.86149" fill="#ffffff"/><rect x="395.258" y="298.222" width="64.7321" height="64.7321" rx="15.723" fill="#EDF8FD"/><rect x="480.953" y="298.222" width="64.7321" height="64.7321" rx="15.723" fill="#9FDDF9"/><rect x="566.648" y="298.222" width="64.7321" height="64.7321" rx="15.723" fill="#EDF8FD"/><rect x="395.258" y="383.918" width="64.7321" height="64.7321" rx="15.723" fill="#EDF8FD"/><rect x="480.953" y="383.918" width="64.7321" height="64.7321" rx="5.24099" fill="#EDF8FD"/><rect x="566.648" y="383.918" width="64.7321" height="64.7321" rx="15.723" fill="#EDF8FD"/><rect x="395.258" y="469.615" width="64.7321" height="64.7321" rx="15.723" fill="#EDF8FD"/><rect x="480.953" y="469.615" width="64.7321" height="64.7321" rx="5.24099" fill="#EDF8FD"/><rect x="566.648" y="469.615" width="64.7321" height="64.7321" rx="15.723" fill="#EDF8FD"/><path fill-rule="evenodd" clip-rule="evenodd" d="M505.22 335.023L502.761 341.039L508.78 338.583L509.522 337.84L510.71 339.028L509.713 340.025L501.622 343.082C501.058 343.295 500.505 342.743 500.719 342.178L503.776 334.088L504.773 333.091L505.962 334.28L505.22 335.023ZM509.114 342.368C509.114 341.903 509.491 341.526 509.956 341.526H519.491C519.956 341.526 520.333 341.903 520.333 342.368C520.333 342.832 519.956 343.209 519.491 343.209H509.956C509.491 343.209 509.114 342.832 509.114 342.368ZM522.576 341.526C522.112 341.526 521.735 341.903 521.735 342.368C521.735 342.832 522.112 343.209 522.576 343.209H525.101C525.565 343.209 525.942 342.832 525.942 342.368C525.942 341.903 525.565 341.526 525.101 341.526H522.576Z" fill="#0037C5"/><path fill-rule="evenodd" clip-rule="evenodd" d="M521.06 327.471C521.387 327.798 521.916 327.798 522.242 327.471L524.663 325.05C526.303 323.411 526.303 320.753 524.663 319.113C523.024 317.474 520.366 317.474 518.727 319.113L512.321 325.519C511.993 325.847 511.993 326.378 512.321 326.706C512.649 327.034 513.18 327.034 513.508 326.706L519.903 320.311C520.888 319.326 522.485 319.326 523.47 320.311C524.455 321.296 524.455 322.893 523.47 323.878L521.06 326.289C520.733 326.615 520.733 327.144 521.06 327.471ZM504.347 333.493C504.305 333.535 504.268 333.58 504.237 333.628L503.781 334.084L504.228 334.531C504.261 334.584 504.301 334.634 504.347 334.68C504.393 334.727 504.443 334.766 504.497 334.799L508.977 339.28C509.01 339.333 509.05 339.383 509.096 339.43C509.143 339.476 509.193 339.516 509.246 339.549L509.718 340.021L510.914 338.825L510.901 338.812L519.562 330.151C519.89 329.823 519.89 329.292 519.562 328.964C519.234 328.636 518.703 328.636 518.375 328.964L509.714 337.625L506.152 334.063L510.826 329.389C511.154 329.061 511.154 328.529 510.826 328.201C510.498 327.873 509.966 327.873 509.639 328.201L504.347 333.493Z" fill="#0037C5"/><path fill-rule="evenodd" clip-rule="evenodd" d="M586.979 317.486C586.175 317.486 585.523 318.138 585.523 318.942V342.235C585.523 343.039 586.175 343.691 586.979 343.691H604.447C605.251 343.691 605.903 343.039 605.903 342.235V335.829C605.903 335.347 605.512 334.956 605.029 334.956C604.547 334.956 604.156 335.347 604.156 335.829V337.868V341.216C604.156 341.618 603.83 341.944 603.428 341.944H587.998C587.596 341.944 587.27 341.618 587.27 341.216V319.961C587.27 319.559 587.596 319.233 587.998 319.233H603.428C603.83 319.233 604.156 319.559 604.156 319.961V320.398V320.839C604.156 321.321 604.547 321.713 605.029 321.713C605.512 321.713 605.903 321.321 605.903 320.839V318.942C605.903 318.138 605.251 317.486 604.447 317.486H586.979ZM589.89 323.309C589.89 322.505 590.542 321.853 591.346 321.853H600.08C600.884 321.853 601.536 322.505 601.536 323.309C601.536 324.113 600.884 324.765 600.08 324.765H591.346C590.542 324.765 589.89 324.113 589.89 323.309ZM591.346 329.133C590.542 329.133 589.89 329.784 589.89 330.588C589.89 331.392 590.542 332.044 591.346 332.044H595.131L598.042 329.133H591.346Z" fill="#0037C5"/><path fill-rule="evenodd" clip-rule="evenodd" d="M611.645 321.192C610.508 320.055 608.665 320.055 607.528 321.192L595.298 333.424C595.218 333.504 595.157 333.601 595.122 333.708L593.578 338.341C593.388 338.91 593.929 339.451 594.498 339.261L599.13 337.717C599.237 337.682 599.335 337.621 599.415 337.542L607.223 329.732C607.544 329.411 607.545 328.89 607.224 328.568C606.903 328.245 606.38 328.244 606.058 328.567L605.901 328.723L605.901 328.723L598.198 336.428L595.827 337.34C595.709 337.385 595.594 337.269 595.639 337.151L596.551 334.781L608.902 322.428C609.357 321.973 610.094 321.973 610.549 322.428C611.004 322.882 611.004 323.62 610.549 324.075L608.225 326.399C607.93 326.724 607.941 327.226 608.254 327.538C608.576 327.859 609.097 327.858 609.419 327.536L611.645 325.31C612.782 324.173 612.782 322.329 611.645 321.192Z" fill="#0037C5"/><path fill-rule="evenodd" clip-rule="evenodd" d="M589.195 417.687C589.195 416.138 590.451 414.882 592 414.882H606.023C607.572 414.882 608.827 416.138 608.827 417.687V428.905C608.827 430.454 607.572 431.71 606.023 431.71H592C590.451 431.71 589.195 430.454 589.195 428.905V419.931V417.687ZM599.572 420.772H590.878V428.625C590.878 429.399 591.506 430.027 592.28 430.027H605.742C606.517 430.027 607.145 429.399 607.145 428.625V417.967C607.145 417.193 606.517 416.565 605.742 416.565H592.28C591.506 416.565 590.878 417.193 590.878 417.967V419.089H599.572C600.037 419.089 600.414 419.466 600.414 419.931C600.414 420.395 600.037 420.772 599.572 420.772ZM599.011 424.698C598.237 424.698 597.609 425.326 597.609 426.101V427.503C597.609 428.277 598.237 428.905 599.011 428.905C599.786 428.905 600.414 428.277 600.414 427.503V426.101C600.414 425.326 599.786 424.698 599.011 424.698ZM601.956 419.089C601.491 419.089 601.115 419.466 601.115 419.931C601.115 420.395 601.491 420.772 601.956 420.772H604.48C604.945 420.772 605.322 420.395 605.322 419.931C605.322 419.466 604.945 419.089 604.48 419.089H601.956Z" fill="#0037C5"/><path d="M592 407.871C592 403.999 595.139 400.859 599.011 400.859C602.884 400.859 606.023 403.999 606.023 407.871V413.129C606.023 413.71 605.552 414.181 604.971 414.181C604.39 414.181 603.919 413.71 603.919 413.129V407.871C603.919 405.16 601.722 402.963 599.011 402.963C596.301 402.963 594.103 405.16 594.103 407.871V413.129C594.103 413.71 593.633 414.181 593.052 414.181C592.471 414.181 592 413.71 592 413.129V407.871Z" fill="#0037C5"/><path fill-rule="evenodd" clip-rule="evenodd" d="M428.738 429.713C428.187 430.491 427.046 430.503 426.499 429.723C423.923 426.048 417.805 416.854 417.805 412.425C417.805 406.814 422.199 402.266 427.621 402.266C433.042 402.266 437.437 406.814 437.437 412.425C437.437 414.581 436.349 417.585 434.173 421.435C434.045 421.663 433.851 421.995 433.668 422.305C433.408 422.746 432.826 422.868 432.409 422.569C432.062 422.32 431.945 421.858 432.132 421.474L432.385 420.955C434.161 417.845 435.754 414.482 435.754 412.425C435.754 407.776 432.113 404.008 427.621 404.008C423.129 404.008 419.487 407.776 419.487 412.425C419.487 416.329 425.225 424.936 427.062 427.591C427.335 427.986 427.906 427.986 428.179 427.591C428.619 426.956 429.282 425.98 430.036 424.808L430.547 424.079C430.824 423.683 431.373 423.593 431.762 423.879C432.129 424.149 432.223 424.658 431.973 425.039C431.778 425.337 431.551 425.68 431.365 425.954C430.829 426.747 429.634 428.444 428.738 429.713Z" fill="#0037C5"/><path fill-rule="evenodd" clip-rule="evenodd" d="M431.828 412.425C431.828 414.829 429.944 416.778 427.621 416.778C425.297 416.778 423.414 414.829 423.414 412.425C423.414 410.02 425.297 408.071 427.621 408.071C428.143 408.071 428.642 408.17 429.103 408.349C429.558 408.527 429.621 409.129 429.281 409.479L429.16 409.604C428.935 409.835 428.606 409.922 428.282 409.903C428.071 409.844 427.85 409.813 427.621 409.813C426.227 409.813 425.097 410.982 425.097 412.425C425.097 413.868 426.227 415.037 427.621 415.037C429.015 415.037 430.145 413.868 430.145 412.425C430.145 412.16 430.107 411.905 430.036 411.664C430.026 411.37 430.106 411.074 430.311 410.865C430.721 410.448 431.457 410.54 431.629 411.099C431.758 411.517 431.828 411.963 431.828 412.425Z" fill="#0037C5"/><path fill-rule="evenodd" clip-rule="evenodd" d="M499.823 412.798C499.274 413.17 499.147 413.923 499.543 414.454C499.914 414.951 500.611 415.069 501.125 414.721L512.525 407.001C513 406.679 513.622 406.679 514.097 407.001L525.508 414.729C526.026 415.079 526.729 414.957 527.098 414.451C527.484 413.92 527.354 413.174 526.81 412.806L514.097 404.196C513.622 403.875 513 403.875 512.525 404.196L499.823 412.798ZM521.473 427.808V428.064C521.473 428.373 521.222 428.625 520.912 428.625H505.71C505.4 428.625 505.149 428.373 505.149 428.064V415.652C505.11 415.22 504.748 414.882 504.306 414.882C503.839 414.882 503.46 415.261 503.46 415.728V429.185C503.46 429.805 503.963 430.307 504.582 430.307H522.04C522.659 430.307 523.161 429.805 523.161 429.185V424.138C523.161 423.673 522.785 423.296 522.32 423.296C521.855 423.296 521.478 423.673 521.478 424.138V427.811L521.473 427.808ZM521.473 415.723C521.473 415.259 521.852 414.882 522.317 414.882C522.782 414.882 523.161 415.259 523.161 415.723V421.052C523.161 421.517 522.782 421.894 522.317 421.894C521.852 421.894 521.473 421.517 521.473 421.052V415.723Z" fill="#0037C5"/><path fill-rule="evenodd" clip-rule="evenodd" d="M517.529 403.103C517.529 403.079 517.53 403.054 517.532 403.03C517.53 403.008 517.529 402.986 517.529 402.963C517.529 402.576 517.843 402.262 518.23 402.262H518.374H522.314H522.457C522.844 402.262 523.158 402.576 523.158 402.963C523.158 402.986 523.157 403.008 523.155 403.03C523.157 403.054 523.158 403.079 523.158 403.103V407.731C523.158 408.195 522.779 408.572 522.314 408.572C521.849 408.572 521.47 408.195 521.47 407.731V403.664H519.218V404.926C519.218 405.391 518.838 405.768 518.374 405.768C517.909 405.768 517.529 405.391 517.529 404.926V403.103ZM509.086 417.407C509.086 416.787 509.588 416.285 510.208 416.285H516.408C517.027 416.285 517.529 416.787 517.529 417.407V426.38C517.529 426.846 517.152 427.223 516.687 427.223C516.222 427.223 515.845 426.846 515.845 426.38V423.296H515.841V418.528C515.841 418.219 515.589 417.967 515.28 417.967H511.336C511.026 417.967 510.775 418.219 510.775 418.528V426.433C510.746 426.874 510.379 427.223 509.931 427.223C509.464 427.223 509.086 426.844 509.086 426.377V417.407Z" fill="#0037C5"/><path fill-rule="evenodd" clip-rule="evenodd" d="M433.484 326.636C433.484 332.058 429.089 336.452 423.668 336.452C418.246 336.452 413.852 332.058 413.852 326.636C413.852 321.215 418.246 316.82 423.668 316.82C429.089 316.82 433.484 321.215 433.484 326.636ZM431.8 326.636C431.8 331.127 428.159 334.769 423.667 334.769C419.175 334.769 415.534 331.127 415.534 326.636C415.534 322.144 419.175 318.502 423.667 318.502C428.159 318.502 431.8 322.144 431.8 326.636Z" fill="#0037C5"/><path fill-rule="evenodd" clip-rule="evenodd" d="M418.63 324.184C418.474 324.497 418.638 324.852 418.961 324.987C419.346 325.149 419.804 324.937 420.014 324.575C420.17 324.304 420.394 323.981 420.708 323.649C421.547 322.767 422.776 322.523 423.559 322.463C423.962 322.432 424.308 322.108 424.308 321.704C424.308 321.345 424.033 321.051 423.674 321.069C422.74 321.117 420.961 321.394 419.655 322.726C419.141 323.271 418.819 323.802 418.63 324.184ZM430.967 335.92C430.42 335.373 430.42 334.485 430.968 333.938C431.515 333.39 432.403 333.391 432.951 333.938L433.585 334.573C434.522 334.322 435.563 334.563 436.298 335.298L440.566 339.567C441.661 340.662 441.66 342.439 440.565 343.534C439.469 344.63 437.692 344.631 436.597 343.536L432.328 339.267C431.594 338.533 431.353 337.493 431.603 336.557L430.967 335.92ZM433.305 336.254C432.758 336.801 432.756 337.688 433.302 338.236L437.588 342.539C438.136 343.089 439.026 343.089 439.574 342.54C440.121 341.994 440.123 341.106 439.577 340.558L435.29 336.255C434.743 335.706 433.853 335.706 433.305 336.254Z" fill="#0037C5"/><path fill-rule="evenodd" clip-rule="evenodd" d="M419.859 496.817L426.335 491.421C426.839 491 427.605 491.359 427.605 492.016V511.946C427.605 512.603 426.839 512.961 426.335 512.541L419.859 507.145H415.986C415.273 507.145 414.695 506.567 414.695 505.854V498.108C414.695 497.395 415.273 496.817 415.986 496.817H419.859ZM416.632 498.366C416.418 498.366 416.245 498.539 416.245 498.753V505.208C416.245 505.422 416.418 505.596 416.632 505.596H420.324L425.844 510.196C425.928 510.266 426.056 510.206 426.056 510.097V493.865C426.056 493.755 425.928 493.696 425.844 493.766L420.324 498.366H416.632ZM436.685 491.918C436.393 491.578 435.882 491.589 435.578 491.919C435.285 492.238 435.293 492.736 435.572 493.067C436.644 494.338 438.993 497.623 438.993 502.007C438.993 506.39 436.646 509.666 435.574 510.935C435.293 511.267 435.283 511.765 435.576 512.086C435.881 512.421 436.396 512.434 436.69 512.09C437.877 510.702 440.542 507.025 440.542 502.007C440.542 496.981 437.869 493.301 436.685 491.918ZM432.967 494.786C433.266 494.457 433.774 494.45 434.05 494.8C434.949 495.941 436.669 498.573 436.669 502.007C436.669 505.448 434.942 508.083 434.045 509.219C433.771 509.565 433.268 509.56 432.969 509.235C432.695 508.937 432.692 508.476 432.935 508.152C433.688 507.147 435.12 504.861 435.12 502.007C435.12 499.155 433.69 496.876 432.936 495.873C432.692 495.548 432.693 495.086 432.967 494.786ZM431.41 497.672C431.161 497.307 430.655 497.304 430.357 497.631C430.086 497.928 430.09 498.393 430.309 498.731C430.711 499.355 431.247 500.474 431.247 502.007C431.247 503.541 430.71 504.662 430.308 505.287C430.09 505.625 430.088 506.09 430.36 506.385C430.657 506.707 431.158 506.704 431.405 506.342C431.964 505.526 432.796 503.979 432.796 502.007C432.796 500.04 431.969 498.493 431.41 497.672Z" fill="#0037C5"/><path fill-rule="evenodd" clip-rule="evenodd" d="M503.555 497.797C503.555 492.406 507.925 488.036 513.316 488.036C518.707 488.036 523.078 492.406 523.078 497.797V499.192C524.618 499.192 525.866 500.44 525.866 501.981V507.559C525.866 509.099 524.618 510.348 523.078 510.348V512.439C523.078 513.98 521.829 515.228 520.289 515.228H517.251C516.978 515.648 516.504 515.926 515.966 515.926H512.061C511.214 515.926 510.527 515.239 510.527 514.392C510.527 513.545 511.214 512.858 512.061 512.858H515.966C516.562 512.858 517.078 513.198 517.332 513.694H520.01C520.78 513.694 521.404 513.07 521.404 512.3V510.627V510.348H518.894V499.192H521.404V497.797C521.404 493.33 517.783 489.709 513.316 489.709C508.849 489.709 505.228 493.33 505.228 497.797V499.192H507.738V510.348H503.555C502.014 510.348 500.766 509.099 500.766 507.559V501.981C500.766 500.44 502.014 499.192 503.555 499.192V497.797ZM520.567 500.865H522.799C523.569 500.865 524.193 501.489 524.193 502.26V507.28C524.193 508.05 523.569 508.674 522.799 508.674H520.567V500.865ZM506.065 500.865H503.834C503.063 500.865 502.439 501.489 502.439 502.26V507.28C502.439 508.05 503.063 508.674 503.834 508.674H506.065V500.865Z" fill="#0037C5"/><path fill-rule="evenodd" clip-rule="evenodd" d="M588.688 489.071C588.688 488.358 589.265 487.78 589.978 487.78H592.56H593.851H596.433H597.724H600.306H601.597H604.179H605.47H608.052C608.765 487.78 609.343 488.358 609.343 489.071V491.653C609.343 492.366 608.765 492.944 608.052 492.944H607.984L606.826 514.958C606.79 515.644 606.223 516.182 605.536 516.182H592.494C591.808 516.182 591.241 515.644 591.205 514.958L590.046 492.944H589.978C589.265 492.944 588.688 492.366 588.688 491.653V489.071ZM590.495 491.653H592.56V489.071H590.495C590.21 489.071 589.978 489.302 589.978 489.587V491.136C589.978 491.422 590.21 491.653 590.495 491.653ZM593.851 491.653H596.433V489.071H593.851V491.653ZM597.724 491.653H600.306V489.071H597.724V491.653ZM601.597 491.653H604.179V489.071H601.597V491.653ZM605.47 491.653H607.536C607.821 491.653 608.052 491.422 608.052 491.136V489.587C608.052 489.302 607.821 489.071 607.536 489.071H605.47V491.653ZM591.269 492.944H606.761L605.507 514.025C605.486 514.366 605.204 514.632 604.862 514.632H593.169C592.827 514.632 592.545 514.366 592.524 514.025L591.269 492.944ZM599.015 496.817C598.659 496.817 598.37 497.106 598.37 497.462V511.663C598.37 512.02 598.659 512.309 599.015 512.309C599.372 512.309 599.661 512.02 599.661 511.663V497.462C599.661 497.106 599.372 496.817 599.015 496.817ZM594.497 497.462C594.497 497.106 594.786 496.817 595.142 496.817C595.499 496.817 595.788 497.106 595.788 497.462V511.663C595.788 512.02 595.499 512.309 595.142 512.309C594.786 512.309 594.497 512.02 594.497 511.663V497.462ZM602.888 496.817C602.532 496.817 602.243 497.106 602.243 497.462V511.663C602.243 512.02 602.532 512.309 602.888 512.309C603.245 512.309 603.534 512.02 603.534 511.663V497.462C603.534 497.106 603.245 496.817 602.888 496.817Z" fill="#0037C5"/><path fill-rule="evenodd" clip-rule="evenodd" d="M536.047 386.472C540.794 385.549 545.392 388.649 546.315 393.397C550.11 412.905 558.764 443.591 580.63 474.603C583.417 478.555 582.472 484.019 578.519 486.806C574.566 489.593 569.103 488.648 566.315 484.696C542.565 451.012 533.209 417.749 529.123 396.741C528.199 391.993 531.299 387.396 536.047 386.472Z" fill="#FFE177"/><path d="M642.374 499.3C630.876 504.762 711.656 520.608 700.155 507.538C694.02 500.294 682.15 484.106 683.75 477.306C685.35 470.506 688.083 467.472 689.25 466.806L670.25 462.306L654.787 477.97C654.787 477.97 651.788 494.828 642.374 499.3Z" fill="#FFE177"/><path d="M699.44 386.051C698.161 384.564 687.27 399.991 685.498 399.64C681.253 398.797 685.669 406.455 677.885 409.864L677.885 409.864C672.179 412.364 665.535 415.274 659.28 421.573C649.532 431.39 647.058 443.069 646.497 446.119C642.4 468.402 662.735 467.5 664.754 469.806L689.844 467.876C689.844 467.876 706.084 471.236 710.144 466.056C714.204 460.876 706.005 393.684 699.44 386.051Z" fill="#FFE177"/><path d="M704.78 401.93L702.686 395.164H689.959L668.372 425.45L666.047 446.736L680.887 456.256C671.087 445.756 676.376 434.916 680.887 432.596C686.525 429.697 693.825 432.538 697.208 429.155C700.591 425.772 694.47 416.751 694.631 412.079C694.76 408.342 701.451 403.756 704.78 401.93Z" fill="#CBB155"/><path d="M583.201 451.508C578.619 439.661 565.3 433.772 553.453 438.354C541.606 442.937 535.716 456.256 540.299 468.103L583.201 451.508ZM632.621 497.882C626.55 497.386 618.757 496.019 610.6 490.563C602.538 485.171 592.052 474.39 583.201 451.508L540.299 468.103C551.948 498.222 567.795 517.274 585.025 528.798C602.16 540.259 618.617 542.892 628.879 543.729L632.621 497.882Z" fill="#0E9CDA"/><path d="M745.341 634.586C726.858 644.616 660.961 644.983 638.062 632.068C637.675 629.459 636.325 624.068 634.481 617.09C634.039 615.431 633.559 613.679 633.034 611.835C631.329 605.871 629.172 599.004 626.544 591.657C625.853 589.73 618.412 564.977 614.309 554.217C603.224 525.153 605.12 504.951 616.702 494.125C640.455 497.281 649.424 489.757 649.424 489.757C649.424 489.757 656.614 498.524 665.317 498.238C670.553 498.063 678.729 498.939 691.211 491.472C710.91 507.235 723.45 502.883 733.688 513.631C741.42 521.748 738.943 539.85 741.709 561.365C741.921 562.988 742.114 564.619 742.317 566.269C743.045 572.51 743.672 578.898 744.17 585.287C744.299 586.964 744.428 588.633 744.539 590.301C744.981 596.773 745.304 603.207 745.479 609.439C745.525 611.107 745.562 612.767 745.59 614.398C745.709 621.552 745.636 628.364 745.341 634.586Z" fill="#14AFF1"/><path d="M843.291 500.039C843.291 500.039 835.291 478.144 839.678 474.963C847.085 469.592 844.99 480.392 847.104 475.471C849.217 470.551 855.758 446.133 860.835 448.072C868.648 451.056 857.834 470.348 858.423 472.437C858.423 472.437 870.263 478.658 873.604 481.361C876.946 484.064 874.908 493.668 870.602 497.894C868.793 499.669 861.806 504.576 858.894 508.772C854.873 514.566 844.734 502.671 843.291 500.039Z" fill="#FFE177"/><path fill-rule="evenodd" clip-rule="evenodd" d="M852.694 485.25C857.53 485.348 861.37 489.348 861.272 494.183C860.983 508.344 855.769 526.639 848.219 541.647C846.046 545.967 840.781 547.708 836.46 545.534C832.14 543.361 830.399 538.096 832.573 533.775C839.265 520.474 843.538 504.752 843.76 493.827C843.859 488.991 847.859 485.151 852.694 485.25Z" fill="#FFE177"/><path d="M546.1 392.709C546.1 392.709 550.685 365.522 546.086 362.657C538.32 357.819 541.168 368.446 538.714 363.686C536.26 358.926 528.02 335.028 523.092 337.319C515.508 340.845 527.65 359.329 527.21 361.454C527.21 361.454 515.836 368.492 512.693 371.423C509.55 374.354 512.257 383.791 516.85 387.704C518.779 389.347 526.094 393.752 529.293 397.732C533.712 403.23 544.845 395.437 546.1 392.709Z" fill="#FFE177"/><path d="M623.853 406.793C617.163 396.198 623.853 390.2 626.157 388.817C628.462 387.434 635.637 386.983 656.117 373.146C671.674 362.634 680.545 330.741 680.545 330.741C680.545 330.741 720.806 381.707 704.052 398.496C698.992 403.566 696.165 407.283 691.597 410.443C689.843 411.657 699.04 424.649 694.373 427.995C690.331 430.892 682.484 428.401 680.084 431.221C677.217 434.591 673.964 442.418 676.333 448.275C678.702 454.132 687.459 452.423 689.764 458.415C692.068 464.407 680.45 472.184 677.78 476.391C674.844 481.018 672.388 471.848 664.874 478.695C657.677 485.254 650.768 481.106 650.125 481C644.052 479.998 648.801 466.244 637.605 454.132C630.822 446.793 625.717 449.206 619.42 440.44C615.901 435.541 613.56 431.367 615.019 420.905C616.478 410.443 622.009 406.793 623.853 406.793Z" fill="#22a6b3"/><path d="M745.949 612.295C725.807 617.384 705.195 619.946 684.5 619.946C679.522 619.946 674.535 619.799 669.539 619.504C657.85 618.812 645.236 616.959 633.814 614.655C633.372 612.996 632.893 611.244 632.367 609.4C644.342 611.945 657.546 613.927 669.833 614.655C695.35 616.176 720.848 613.724 745.617 607.372C745.691 607.354 745.765 607.336 745.838 607.336C745.884 609.004 745.921 610.663 745.949 612.295Z" fill="white"/><path d="M744.898 588.198C725.3 595.094 704.383 598.67 683.679 598.67C681.218 598.67 678.775 598.615 676.323 598.514C659.582 597.822 641.184 593.968 625.19 588.742C624.499 586.815 624.162 584.479 623.406 582.497C640.082 588.351 658.937 592.946 676.525 593.674C699.433 594.614 722.838 590.992 744.529 583.184C744.658 584.861 744.787 586.53 744.898 588.198Z" fill="white"/><path d="M742.679 564.166C724.804 569.743 706.156 572.592 687.553 572.592C681.174 572.592 674.804 572.26 668.48 571.587C649.076 569.522 633.256 567.472 615.529 559.452C614.284 557.027 614.174 554.026 612.828 551.639C631.818 561.06 647.951 564.517 668.988 566.757C693.425 569.365 718.462 566.766 742.07 559.262C742.282 560.885 742.476 562.516 742.679 564.166Z" fill="white"/><path d="M716.75 529.306C727.25 542.806 748.73 562.264 780.25 564.806C811.25 567.306 829.917 549.639 837.25 539.306" stroke="#14AFF1" stroke-width="46" stroke-linecap="round" stroke-linejoin="round"/></svg>