<svg width="763" height="538" viewBox="0 0 763 538" fill="none" xmlns="http://www.w3.org/2000/svg">
<rect x="-896" y="-366" width="2766" height="1572" fill="white"/>
<path d="M749.866 311.886L678.942 47.1924C671.958 21.1287 645.168 5.66143 619.105 12.6451L47.1955 165.888C21.1319 172.871 5.66464 199.662 12.6484 225.725L83.5728 490.419C90.5565 516.482 117.347 531.95 143.41 524.966L715.319 371.723C741.383 364.74 756.85 337.949 749.866 311.886Z" fill="#EDF8FD"/>
<path d="M632.321 87.547H130.185C106.257 87.547 86.8589 106.945 86.8589 130.873V406.738C86.8589 430.666 106.257 450.064 130.185 450.064H632.321C656.249 450.064 675.647 430.666 675.647 406.738V130.873C675.647 106.945 656.249 87.547 632.321 87.547Z" fill="#D1F1FF"/>
<path d="M618.144 198.37H451.978C442.329 198.37 434.508 206.192 434.508 215.84C434.508 225.488 442.329 233.31 451.978 233.31H618.144C627.792 233.31 635.614 225.488 635.614 215.84C635.614 206.192 627.792 198.37 618.144 198.37Z" fill="#EDF8FD"/>
<path d="M618.144 256.402H451.978C442.329 256.402 434.508 264.224 434.508 273.872C434.508 283.52 442.329 291.342 451.978 291.342H618.144C627.792 291.342 635.614 283.52 635.614 273.872C635.614 264.224 627.792 256.402 618.144 256.402Z" fill="#EDF8FD"/>
<path d="M472.173 355.513C481.822 355.513 489.643 347.691 489.643 338.043C489.643 328.395 481.822 320.573 472.173 320.573C462.525 320.573 454.703 328.395 454.703 338.043C454.703 347.691 462.525 355.513 472.173 355.513Z" fill="#EDF8FD"/>
<path d="M535.064 355.513C544.712 355.513 552.534 347.691 552.534 338.043C552.534 328.395 544.712 320.573 535.064 320.573C525.415 320.573 517.594 328.395 517.594 338.043C517.594 347.691 525.415 355.513 535.064 355.513Z" fill="#EDF8FD"/>
<path d="M597.954 355.513C607.602 355.513 615.424 347.691 615.424 338.043C615.424 328.395 607.602 320.573 597.954 320.573C588.305 320.573 580.484 328.395 580.484 338.043C580.484 347.691 588.305 355.513 597.954 355.513Z" fill="#0037C5"/>
<path d="M472.173 411.417C481.822 411.417 489.643 403.595 489.643 393.947C489.643 384.299 481.822 376.477 472.173 376.477C462.525 376.477 454.703 384.299 454.703 393.947C454.703 403.595 462.525 411.417 472.173 411.417Z" fill="#EDF8FD"/>
<path d="M535.064 411.417C544.712 411.417 552.534 403.595 552.534 393.947C552.534 384.299 544.712 376.477 535.064 376.477C525.415 376.477 517.594 384.299 517.594 393.947C517.594 403.595 525.415 411.417 535.064 411.417Z" fill="#EDF8FD"/>
<path d="M597.954 411.417C607.602 411.417 615.424 403.595 615.424 393.947C615.424 384.299 607.602 376.477 597.954 376.477C588.305 376.477 580.484 384.299 580.484 393.947C580.484 403.595 588.305 411.417 597.954 411.417Z" fill="#EDF8FD"/>
<path d="M638.245 119.265H124.259C119.918 119.265 116.398 122.785 116.398 127.127V146.344C116.398 150.685 119.918 154.205 124.259 154.205H638.245C642.587 154.205 646.107 150.685 646.107 146.344V127.127C646.107 122.785 642.587 119.265 638.245 119.265Z" fill="white"/>
<path d="M189.267 182.222H155.981C147.297 182.222 140.258 189.261 140.258 197.945V231.231C140.258 239.915 147.297 246.954 155.981 246.954H189.267C197.95 246.954 204.99 239.915 204.99 231.231V197.945C204.99 189.261 197.95 182.222 189.267 182.222Z" fill="#EDF8FD"/>
<path d="M274.962 182.222H241.676C232.993 182.222 225.953 189.261 225.953 197.945V231.231C225.953 239.915 232.993 246.954 241.676 246.954H274.962C283.646 246.954 290.685 239.915 290.685 231.231V197.945C290.685 189.261 283.646 182.222 274.962 182.222Z" fill="#9FDDF9"/>
<path d="M360.657 182.222H327.371C318.687 182.222 311.648 189.261 311.648 197.945V231.231C311.648 239.915 318.687 246.954 327.371 246.954H360.657C369.341 246.954 376.38 239.915 376.38 231.231V197.945C376.38 189.261 369.341 182.222 360.657 182.222Z" fill="#EDF8FD"/>
<path d="M189.267 267.918H155.981C147.297 267.918 140.258 274.957 140.258 283.641V316.927C140.258 325.611 147.297 332.65 155.981 332.65H189.267C197.95 332.65 204.99 325.611 204.99 316.927V283.641C204.99 274.957 197.95 267.918 189.267 267.918Z" fill="#EDF8FD"/>
<path d="M285.444 267.918H231.194C228.3 267.918 225.953 270.264 225.953 273.159V327.409C225.953 330.304 228.3 332.65 231.194 332.65H285.444C288.339 332.65 290.685 330.304 290.685 327.409V273.159C290.685 270.264 288.339 267.918 285.444 267.918Z" fill="#EDF8FD"/>
<path d="M360.657 267.918H327.371C318.687 267.918 311.648 274.957 311.648 283.641V316.927C311.648 325.611 318.687 332.65 327.371 332.65H360.657C369.341 332.65 376.38 325.611 376.38 316.927V283.641C376.38 274.957 369.341 267.918 360.657 267.918Z" fill="#EDF8FD"/>
<path d="M189.267 353.615H155.981C147.297 353.615 140.258 360.654 140.258 369.338V402.624C140.258 411.308 147.297 418.347 155.981 418.347H189.267C197.95 418.347 204.99 411.308 204.99 402.624V369.338C204.99 360.654 197.95 353.615 189.267 353.615Z" fill="#EDF8FD"/>
<path d="M285.444 353.615H231.194C228.3 353.615 225.953 355.961 225.953 358.856V413.106C225.953 416.001 228.3 418.347 231.194 418.347H285.444C288.339 418.347 290.685 416.001 290.685 413.106V358.856C290.685 355.961 288.339 353.615 285.444 353.615Z" fill="#EDF8FD"/>
<path d="M360.657 353.615H327.371C318.687 353.615 311.648 360.654 311.648 369.338V402.624C311.648 411.308 318.687 418.347 327.371 418.347H360.657C369.341 418.347 376.38 411.308 376.38 402.624V369.338C376.38 360.654 369.341 353.615 360.657 353.615Z" fill="#EDF8FD"/>
<path fill-rule="evenodd" clip-rule="evenodd" d="M250.22 219.023L247.761 225.039L253.78 222.583L254.522 221.84L255.71 223.028L254.713 224.025L246.622 227.082C246.058 227.295 245.505 226.743 245.719 226.178L248.776 218.088L249.773 217.091L250.962 218.28L250.22 219.023ZM254.114 226.368C254.114 225.903 254.491 225.526 254.956 225.526H264.491C264.956 225.526 265.333 225.903 265.333 226.368C265.333 226.832 264.956 227.209 264.491 227.209H254.956C254.491 227.209 254.114 226.832 254.114 226.368ZM267.576 225.526C267.112 225.526 266.735 225.903 266.735 226.368C266.735 226.832 267.112 227.209 267.576 227.209H270.101C270.565 227.209 270.942 226.832 270.942 226.368C270.942 225.903 270.565 225.526 270.101 225.526H267.576Z" fill="#0037C5"/>
<path fill-rule="evenodd" clip-rule="evenodd" d="M266.06 211.471C266.387 211.798 266.916 211.798 267.242 211.471L269.663 209.05C271.303 207.411 271.303 204.753 269.663 203.113C268.024 201.474 265.366 201.474 263.727 203.113L257.321 209.519C256.993 209.847 256.993 210.378 257.321 210.706C257.649 211.034 258.18 211.034 258.508 210.706L264.903 204.311C265.888 203.326 267.485 203.326 268.47 204.311C269.455 205.296 269.455 206.893 268.47 207.878L266.06 210.289C265.733 210.615 265.733 211.144 266.06 211.471ZM249.347 217.493C249.305 217.535 249.268 217.58 249.237 217.628L248.781 218.084L249.228 218.531C249.261 218.584 249.301 218.634 249.347 218.68C249.393 218.727 249.443 218.766 249.497 218.799L253.977 223.28C254.01 223.333 254.05 223.383 254.096 223.43C254.143 223.476 254.193 223.516 254.246 223.549L254.718 224.021L255.914 222.825L255.901 222.812L264.562 214.151C264.89 213.823 264.89 213.292 264.562 212.964C264.234 212.636 263.703 212.636 263.375 212.964L254.714 221.625L251.152 218.063L255.826 213.389C256.154 213.061 256.154 212.529 255.826 212.201C255.498 211.873 254.966 211.873 254.639 212.201L249.347 217.493Z" fill="#0037C5"/>
<path fill-rule="evenodd" clip-rule="evenodd" d="M331.979 201.486C331.175 201.486 330.523 202.138 330.523 202.942V226.235C330.523 227.039 331.175 227.691 331.979 227.691H349.447C350.251 227.691 350.903 227.039 350.903 226.235V219.829C350.903 219.347 350.512 218.956 350.029 218.956C349.547 218.956 349.156 219.347 349.156 219.829V221.868V225.216C349.156 225.618 348.83 225.944 348.428 225.944H332.998C332.596 225.944 332.27 225.618 332.27 225.216V203.961C332.27 203.559 332.596 203.233 332.998 203.233H348.428C348.83 203.233 349.156 203.559 349.156 203.961V204.398V204.839C349.156 205.321 349.547 205.713 350.029 205.713C350.512 205.713 350.903 205.321 350.903 204.839V202.942C350.903 202.138 350.251 201.486 349.447 201.486H331.979ZM334.89 207.309C334.89 206.505 335.542 205.853 336.346 205.853H345.08C345.884 205.853 346.536 206.505 346.536 207.309C346.536 208.113 345.884 208.765 345.08 208.765H336.346C335.542 208.765 334.89 208.113 334.89 207.309ZM336.346 213.133C335.542 213.133 334.89 213.784 334.89 214.588C334.89 215.392 335.542 216.044 336.346 216.044H340.131L343.042 213.133H336.346Z" fill="#0037C5"/>
<path fill-rule="evenodd" clip-rule="evenodd" d="M356.645 205.192C355.508 204.055 353.665 204.055 352.528 205.192L340.298 217.424C340.218 217.504 340.157 217.601 340.122 217.708L338.578 222.341C338.388 222.91 338.929 223.451 339.498 223.261L344.13 221.717C344.237 221.682 344.335 221.621 344.415 221.542L352.223 213.732C352.544 213.411 352.545 212.89 352.224 212.568C351.903 212.245 351.38 212.244 351.058 212.567L350.901 212.723L343.198 220.428L340.827 221.34C340.709 221.385 340.594 221.269 340.639 221.151L341.551 218.781L353.902 206.428C354.357 205.973 355.094 205.973 355.549 206.428C356.004 206.882 356.004 207.62 355.549 208.075L353.225 210.399C352.93 210.724 352.941 211.226 353.254 211.538C353.576 211.859 354.097 211.858 354.419 211.536L356.645 209.31C357.782 208.173 357.782 206.329 356.645 205.192Z" fill="#0037C5"/>
<path fill-rule="evenodd" clip-rule="evenodd" d="M334.195 301.687C334.195 300.138 335.451 298.882 337 298.882H351.023C352.572 298.882 353.827 300.138 353.827 301.687V312.905C353.827 314.454 352.572 315.71 351.023 315.71H337C335.451 315.71 334.195 314.454 334.195 312.905V303.931V301.687ZM344.572 304.772H335.878V312.625C335.878 313.399 336.506 314.027 337.28 314.027H350.742C351.517 314.027 352.145 313.399 352.145 312.625V301.967C352.145 301.193 351.517 300.565 350.742 300.565H337.28C336.506 300.565 335.878 301.193 335.878 301.967V303.089H344.572C345.037 303.089 345.414 303.466 345.414 303.931C345.414 304.395 345.037 304.772 344.572 304.772ZM344.011 308.698C343.237 308.698 342.609 309.326 342.609 310.101V311.503C342.609 312.277 343.237 312.905 344.011 312.905C344.786 312.905 345.414 312.277 345.414 311.503V310.101C345.414 309.326 344.786 308.698 344.011 308.698ZM346.956 303.089C346.491 303.089 346.115 303.466 346.115 303.931C346.115 304.395 346.491 304.772 346.956 304.772H349.48C349.945 304.772 350.322 304.395 350.322 303.931C350.322 303.466 349.945 303.089 349.48 303.089H346.956Z" fill="#0037C5"/>
<path d="M337 291.871C337 287.999 340.139 284.859 344.011 284.859C347.884 284.859 351.023 287.999 351.023 291.871V297.129C351.023 297.71 350.552 298.181 349.971 298.181C349.39 298.181 348.919 297.71 348.919 297.129V291.871C348.919 289.16 346.722 286.963 344.011 286.963C341.301 286.963 339.103 289.16 339.103 291.871V297.129C339.103 297.71 338.633 298.181 338.052 298.181C337.471 298.181 337 297.71 337 297.129V291.871Z" fill="#0037C5"/>
<path fill-rule="evenodd" clip-rule="evenodd" d="M173.738 313.713C173.187 314.491 172.046 314.503 171.499 313.723C168.923 310.048 162.805 300.854 162.805 296.425C162.805 290.814 167.199 286.266 172.621 286.266C178.042 286.266 182.437 290.814 182.437 296.425C182.437 298.581 181.349 301.585 179.173 305.435C179.045 305.663 178.851 305.995 178.668 306.305C178.408 306.746 177.826 306.868 177.409 306.569C177.062 306.32 176.945 305.858 177.132 305.474L177.385 304.955C179.161 301.845 180.754 298.482 180.754 296.425C180.754 291.776 177.113 288.008 172.621 288.008C168.129 288.008 164.487 291.776 164.487 296.425C164.487 300.329 170.225 308.936 172.062 311.591C172.335 311.986 172.906 311.986 173.179 311.591C173.619 310.956 174.282 309.98 175.036 308.808L175.547 308.079C175.824 307.683 176.373 307.593 176.762 307.879C177.129 308.149 177.223 308.658 176.973 309.039C176.778 309.337 176.551 309.68 176.365 309.954C175.829 310.747 174.634 312.444 173.738 313.713Z" fill="#0037C5"/>
<path fill-rule="evenodd" clip-rule="evenodd" d="M176.828 296.425C176.828 298.829 174.944 300.778 172.621 300.778C170.297 300.778 168.414 298.829 168.414 296.425C168.414 294.02 170.297 292.071 172.621 292.071C173.143 292.071 173.642 292.17 174.103 292.349C174.558 292.527 174.621 293.129 174.281 293.479L174.16 293.604C173.935 293.835 173.606 293.922 173.282 293.903C173.071 293.844 172.85 293.813 172.621 293.813C171.227 293.813 170.097 294.982 170.097 296.425C170.097 297.868 171.227 299.037 172.621 299.037C174.015 299.037 175.145 297.868 175.145 296.425C175.145 296.16 175.107 295.905 175.036 295.664C175.026 295.37 175.106 295.074 175.311 294.865C175.721 294.448 176.457 294.54 176.629 295.099C176.758 295.517 176.828 295.963 176.828 296.425Z" fill="#0037C5"/>
<path fill-rule="evenodd" clip-rule="evenodd" d="M244.823 296.798C244.274 297.17 244.147 297.923 244.543 298.454C244.914 298.951 245.611 299.069 246.125 298.721L257.525 291.001C258 290.679 258.622 290.679 259.097 291.001L270.508 298.729C271.026 299.079 271.729 298.957 272.098 298.451C272.484 297.92 272.354 297.174 271.81 296.806L259.097 288.196C258.622 287.875 258 287.875 257.525 288.196L244.823 296.798ZM266.473 311.808V312.064C266.473 312.373 266.222 312.625 265.912 312.625H250.71C250.4 312.625 250.149 312.373 250.149 312.064V299.652C250.11 299.22 249.748 298.882 249.306 298.882C248.839 298.882 248.46 299.261 248.46 299.728V313.185C248.46 313.805 248.963 314.307 249.582 314.307H267.04C267.659 314.307 268.161 313.805 268.161 313.185V308.138C268.161 307.673 267.785 307.296 267.32 307.296C266.855 307.296 266.478 307.673 266.478 308.138V311.811L266.473 311.808ZM266.473 299.723C266.473 299.259 266.852 298.882 267.317 298.882C267.782 298.882 268.161 299.259 268.161 299.723V305.052C268.161 305.517 267.782 305.894 267.317 305.894C266.852 305.894 266.473 305.517 266.473 305.052V299.723Z" fill="#0037C5"/>
<path fill-rule="evenodd" clip-rule="evenodd" d="M262.529 287.103C262.529 287.079 262.53 287.054 262.532 287.03C262.53 287.008 262.529 286.986 262.529 286.963C262.529 286.576 262.843 286.262 263.23 286.262H263.374H267.314H267.457C267.844 286.262 268.158 286.576 268.158 286.963C268.158 286.986 268.157 287.008 268.155 287.03C268.157 287.054 268.158 287.079 268.158 287.103V291.731C268.158 292.195 267.779 292.572 267.314 292.572C266.849 292.572 266.47 292.195 266.47 291.731V287.664H264.218V288.926C264.218 289.391 263.838 289.768 263.374 289.768C262.909 289.768 262.529 289.391 262.529 288.926V287.103ZM254.086 301.407C254.086 300.787 254.588 300.285 255.208 300.285H261.408C262.027 300.285 262.529 300.787 262.529 301.407V310.38C262.529 310.846 262.152 311.223 261.687 311.223C261.222 311.223 260.845 310.846 260.845 310.38V307.296H260.841V302.528C260.841 302.219 260.589 301.967 260.28 301.967H256.336C256.026 301.967 255.775 302.219 255.775 302.528V310.433C255.746 310.874 255.379 311.223 254.931 311.223C254.464 311.223 254.086 310.844 254.086 310.377V301.407Z" fill="#0037C5"/>
<path fill-rule="evenodd" clip-rule="evenodd" d="M178.484 210.636C178.484 216.058 174.089 220.452 168.668 220.452C163.246 220.452 158.852 216.058 158.852 210.636C158.852 205.215 163.246 200.82 168.668 200.82C174.089 200.82 178.484 205.215 178.484 210.636ZM176.8 210.636C176.8 215.127 173.159 218.769 168.667 218.769C164.175 218.769 160.534 215.127 160.534 210.636C160.534 206.144 164.175 202.502 168.667 202.502C173.159 202.502 176.8 206.144 176.8 210.636Z" fill="#0037C5"/>
<path fill-rule="evenodd" clip-rule="evenodd" d="M163.63 208.184C163.474 208.497 163.638 208.852 163.961 208.987C164.346 209.149 164.804 208.937 165.014 208.575C165.17 208.304 165.394 207.981 165.708 207.649C166.547 206.767 167.776 206.523 168.559 206.463C168.962 206.432 169.308 206.108 169.308 205.704C169.308 205.345 169.033 205.051 168.674 205.069C167.74 205.117 165.961 205.394 164.655 206.726C164.141 207.271 163.819 207.802 163.63 208.184ZM175.967 219.92C175.42 219.373 175.42 218.485 175.968 217.938C176.515 217.39 177.403 217.391 177.951 217.938L178.585 218.573C179.522 218.322 180.563 218.563 181.298 219.298L185.566 223.567C186.661 224.662 186.66 226.439 185.565 227.534C184.469 228.63 182.692 228.631 181.597 227.536L177.328 223.267C176.594 222.533 176.353 221.493 176.603 220.557L175.967 219.92ZM178.305 220.254C177.758 220.801 177.756 221.688 178.302 222.236L182.588 226.539C183.136 227.089 184.026 227.089 184.574 226.54C185.121 225.994 185.123 225.106 184.577 224.558L180.29 220.255C179.743 219.706 178.853 219.706 178.305 220.254Z" fill="#0037C5"/>
<path fill-rule="evenodd" clip-rule="evenodd" d="M164.859 380.817L171.335 375.421C171.839 375 172.605 375.359 172.605 376.016V395.946C172.605 396.603 171.839 396.961 171.335 396.541L164.859 391.145H160.986C160.273 391.145 159.695 390.567 159.695 389.854V382.108C159.695 381.395 160.273 380.817 160.986 380.817H164.859ZM161.632 382.366C161.418 382.366 161.245 382.539 161.245 382.753V389.208C161.245 389.422 161.418 389.596 161.632 389.596H165.324L170.844 394.196C170.928 394.266 171.056 394.206 171.056 394.097V377.865C171.056 377.755 170.928 377.696 170.844 377.766L165.324 382.366H161.632ZM181.685 375.918C181.393 375.578 180.882 375.589 180.578 375.919C180.285 376.238 180.293 376.736 180.572 377.067C181.644 378.338 183.993 381.623 183.993 386.007C183.993 390.39 181.646 393.666 180.574 394.935C180.293 395.267 180.283 395.765 180.576 396.086C180.881 396.421 181.396 396.434 181.69 396.09C182.877 394.702 185.542 391.025 185.542 386.007C185.542 380.981 182.869 377.301 181.685 375.918ZM177.967 378.786C178.266 378.457 178.774 378.45 179.05 378.8C179.949 379.941 181.669 382.573 181.669 386.007C181.669 389.448 179.942 392.083 179.045 393.219C178.771 393.565 178.268 393.56 177.969 393.235C177.695 392.937 177.692 392.476 177.935 392.152C178.688 391.147 180.12 388.861 180.12 386.007C180.12 383.155 178.69 380.876 177.936 379.873C177.692 379.548 177.693 379.086 177.967 378.786ZM176.41 381.672C176.161 381.307 175.655 381.304 175.357 381.631C175.086 381.928 175.09 382.393 175.309 382.731C175.711 383.355 176.247 384.474 176.247 386.007C176.247 387.541 175.71 388.662 175.308 389.287C175.09 389.625 175.088 390.09 175.36 390.385C175.657 390.707 176.158 390.704 176.405 390.342C176.964 389.526 177.796 387.979 177.796 386.007C177.796 384.04 176.969 382.493 176.41 381.672Z" fill="#0037C5"/>
<path fill-rule="evenodd" clip-rule="evenodd" d="M248.555 381.797C248.555 376.406 252.925 372.036 258.316 372.036C263.707 372.036 268.078 376.406 268.078 381.797V383.192C269.618 383.192 270.866 384.44 270.866 385.981V391.559C270.866 393.099 269.618 394.348 268.078 394.348V396.439C268.078 397.98 266.829 399.228 265.289 399.228H262.251C261.978 399.648 261.504 399.926 260.966 399.926H257.061C256.214 399.926 255.527 399.239 255.527 398.392C255.527 397.545 256.214 396.858 257.061 396.858H260.966C261.562 396.858 262.078 397.198 262.332 397.694H265.01C265.78 397.694 266.404 397.07 266.404 396.3V394.627V394.348H263.894V383.192H266.404V381.797C266.404 377.33 262.783 373.709 258.316 373.709C253.849 373.709 250.228 377.33 250.228 381.797V383.192H252.738V394.348H248.555C247.014 394.348 245.766 393.099 245.766 391.559V385.981C245.766 384.44 247.014 383.192 248.555 383.192V381.797ZM265.567 384.865H267.799C268.569 384.865 269.193 385.489 269.193 386.26V391.28C269.193 392.05 268.569 392.674 267.799 392.674H265.567V384.865ZM251.065 384.865H248.834C248.063 384.865 247.439 385.489 247.439 386.26V391.28C247.439 392.05 248.063 392.674 248.834 392.674H251.065V384.865Z" fill="#0037C5"/>
<path fill-rule="evenodd" clip-rule="evenodd" d="M333.688 373.071C333.688 372.358 334.265 371.78 334.978 371.78H337.56H338.851H341.433H342.724H345.306H346.597H349.179H350.47H353.052C353.765 371.78 354.343 372.358 354.343 373.071V375.653C354.343 376.366 353.765 376.944 353.052 376.944H352.984L351.826 398.958C351.79 399.644 351.223 400.182 350.536 400.182H337.494C336.808 400.182 336.241 399.644 336.205 398.958L335.046 376.944H334.978C334.265 376.944 333.688 376.366 333.688 375.653V373.071ZM335.495 375.653H337.56V373.071H335.495C335.21 373.071 334.978 373.302 334.978 373.587V375.136C334.978 375.422 335.21 375.653 335.495 375.653ZM338.851 375.653H341.433V373.071H338.851V375.653ZM342.724 375.653H345.306V373.071H342.724V375.653ZM346.597 375.653H349.179V373.071H346.597V375.653ZM350.47 375.653H352.536C352.821 375.653 353.052 375.422 353.052 375.136V373.587C353.052 373.302 352.821 373.071 352.536 373.071H350.47V375.653ZM336.269 376.944H351.761L350.507 398.025C350.486 398.366 350.204 398.632 349.862 398.632H338.169C337.827 398.632 337.545 398.366 337.524 398.025L336.269 376.944ZM344.015 380.817C343.659 380.817 343.37 381.106 343.37 381.462V395.663C343.37 396.02 343.659 396.309 344.015 396.309C344.372 396.309 344.661 396.02 344.661 395.663V381.462C344.661 381.106 344.372 380.817 344.015 380.817ZM339.497 381.462C339.497 381.106 339.786 380.817 340.142 380.817C340.499 380.817 340.788 381.106 340.788 381.462V395.663C340.788 396.02 340.499 396.309 340.142 396.309C339.786 396.309 339.497 396.02 339.497 395.663V381.462ZM347.888 380.817C347.532 380.817 347.243 381.106 347.243 381.462V395.663C347.243 396.02 347.532 396.309 347.888 396.309C348.245 396.309 348.534 396.02 348.534 395.663V381.462C348.534 381.106 348.245 380.817 347.888 380.817Z" fill="#0037C5"/>
<path fill-rule="evenodd" clip-rule="evenodd" d="M281.047 270.472C285.794 269.549 290.392 272.649 291.315 277.397C295.11 296.905 303.764 327.591 325.63 358.603C328.417 362.555 327.472 368.019 323.519 370.806C319.566 373.593 314.103 372.648 311.315 368.696C287.565 335.012 278.209 301.749 274.123 280.741C273.199 275.993 276.299 271.396 281.047 270.472Z" fill="#FFF1C0"/>
<path d="M387.374 383.3C375.876 388.762 456.656 404.608 445.155 391.538C439.02 384.294 427.15 368.106 428.75 361.306C430.35 354.506 433.083 351.472 434.25 350.806L415.25 346.306L399.787 361.97C399.787 361.97 396.788 378.828 387.374 383.3Z" fill="#FFF1C0"/>
<path d="M444.44 270.051C443.161 268.564 432.27 283.991 430.498 283.64C426.253 282.797 430.669 290.455 422.885 293.864C417.179 296.364 410.535 299.274 404.28 305.573C394.532 315.39 392.058 327.069 391.497 330.119C387.4 352.402 407.735 351.5 409.754 353.806L434.844 351.876C434.844 351.876 451.084 355.236 455.144 350.056C459.204 344.876 451.005 277.684 444.44 270.051Z" fill="#FFF1C0"/>
<path d="M449.78 285.93L447.686 279.164H434.959L413.372 309.45L411.047 330.736L425.887 340.256C416.087 329.756 421.376 318.916 425.887 316.596C431.525 313.697 438.825 316.538 442.208 313.155C445.591 309.772 439.47 300.751 439.631 296.079C439.76 292.342 446.451 287.756 449.78 285.93Z" fill="#FFF1C0"/>
<path d="M328.201 335.508C323.619 323.661 310.3 317.772 298.453 322.354C286.606 326.937 280.716 340.256 285.299 352.103L328.201 335.508ZM377.621 381.882C371.55 381.386 363.757 380.019 355.6 374.563C347.538 369.171 337.052 358.39 328.201 335.508L285.299 352.103C296.948 382.222 312.795 401.274 330.025 412.798C347.16 424.259 363.617 426.892 373.879 427.729L377.621 381.882Z" fill="#2161C4"/>
<path d="M490.341 518.586C471.858 528.616 405.961 528.983 383.062 516.068C382.675 513.459 381.325 508.068 379.481 501.09C379.039 499.431 378.559 497.679 378.034 495.835C376.329 489.871 374.172 483.004 371.544 475.657C370.853 473.73 363.412 448.977 359.309 438.217C348.224 409.153 350.12 388.951 361.702 378.125C385.455 381.281 394.424 373.757 394.424 373.757C394.424 373.757 401.614 382.524 410.317 382.238C415.553 382.063 423.729 382.939 436.211 375.472C455.91 391.235 468.45 386.883 478.688 397.631C486.42 405.748 483.943 423.85 486.709 445.365C486.921 446.988 487.114 448.619 487.317 450.269C488.045 456.51 488.672 462.898 489.17 469.287C489.299 470.964 489.428 472.633 489.539 474.301C489.981 480.773 490.304 487.207 490.479 493.439C490.525 495.107 490.562 496.767 490.59 498.398C490.709 505.552 490.636 512.364 490.341 518.586Z" fill="#2161C4"/>
<path d="M588.291 384.039C588.291 384.039 580.291 362.144 584.678 358.963C592.085 353.592 589.99 364.392 592.104 359.471C594.217 354.551 600.758 330.133 605.835 332.072C613.648 335.056 602.834 354.348 603.423 356.437C603.423 356.437 615.263 362.658 618.604 365.361C621.946 368.064 619.908 377.668 615.602 381.894C613.793 383.669 606.806 388.576 603.894 392.772C599.873 398.566 589.734 386.671 588.291 384.039Z" fill="#FFF1C0"/>
<path fill-rule="evenodd" clip-rule="evenodd" d="M597.694 369.25C602.53 369.348 606.37 373.348 606.272 378.183C605.983 392.344 600.769 410.639 593.219 425.647C591.046 429.967 585.781 431.708 581.46 429.534C577.14 427.361 575.399 422.096 577.573 417.775C584.265 404.474 588.538 388.752 588.76 377.827C588.859 372.991 592.859 369.151 597.694 369.25Z" fill="#FFF1C0"/>
<path d="M291.1 276.709C291.1 276.709 295.685 249.522 291.086 246.657C283.32 241.819 286.168 252.446 283.714 247.686C281.26 242.926 273.02 219.028 268.092 221.319C260.508 224.845 272.65 243.329 272.21 245.454C272.21 245.454 260.836 252.492 257.693 255.423C254.55 258.354 257.257 267.791 261.85 271.704C263.779 273.347 271.094 277.752 274.293 281.732C278.712 287.23 289.845 279.437 291.1 276.709Z" fill="#FFF1C0"/>
<path d="M368.853 290.793C362.163 280.198 368.853 274.2 371.157 272.817C373.462 271.434 380.637 270.983 401.117 257.146C416.674 246.634 425.545 214.741 425.545 214.741C425.545 214.741 465.806 265.707 449.052 282.496C443.992 287.566 441.165 291.283 436.597 294.443C434.843 295.657 444.04 308.649 439.373 311.995C435.331 314.892 427.484 312.401 425.084 315.221C422.217 318.591 418.964 326.418 421.333 332.275C423.702 338.132 432.459 336.423 434.764 342.415C437.068 348.407 425.45 356.184 422.78 360.391C419.844 365.018 417.388 355.848 409.874 362.695C402.677 369.254 395.768 365.106 395.125 365C389.052 363.998 393.801 350.244 382.605 338.132C375.822 330.793 370.717 333.206 364.42 324.44C360.901 319.541 358.56 315.367 360.019 304.905C361.478 294.443 367.009 290.793 368.853 290.793Z" fill="#CECECE"/>
<path d="M490.949 496.295C470.807 501.384 450.195 503.946 429.5 503.946C424.522 503.946 419.535 503.799 414.539 503.504C402.85 502.812 390.236 500.959 378.814 498.655C378.372 496.996 377.893 495.244 377.367 493.4C389.342 495.945 402.546 497.927 414.833 498.655C440.35 500.176 465.848 497.724 490.617 491.372C490.691 491.354 490.765 491.336 490.838 491.336C490.884 493.004 490.921 494.663 490.949 496.295Z" fill="white"/>
<path d="M489.898 472.198C470.3 479.094 449.383 482.67 428.679 482.67C426.218 482.67 423.775 482.615 421.323 482.514C404.582 481.822 386.184 477.968 370.19 472.742C369.499 470.815 369.162 468.479 368.406 466.497C385.082 472.351 403.937 476.946 421.525 477.674C444.433 478.614 467.838 474.992 489.529 467.184C489.658 468.861 489.787 470.53 489.898 472.198Z" fill="white"/>
<path d="M487.679 448.166C469.804 453.743 451.156 456.592 432.553 456.592C426.174 456.592 419.804 456.26 413.48 455.587C394.076 453.522 378.256 451.472 360.529 443.452C359.284 441.027 359.174 438.026 357.828 435.639C376.818 445.06 392.951 448.517 413.988 450.757C438.425 453.365 463.462 450.766 487.07 443.262C487.282 444.885 487.476 446.516 487.679 448.166Z" fill="white"/>
<path d="M461.75 413.306C472.25 426.806 493.73 446.264 525.25 448.806C556.25 451.306 574.917 433.639 582.25 423.306" stroke="#2161C4" stroke-width="46" stroke-linecap="round" stroke-linejoin="round"/>
</svg>
