<svg width="270" height="270" viewBox="0 0 270 270" fill="none" xmlns="http://www.w3.org/2000/svg">
<g clip-path="url(#clip0)">
<mask id="mask0" mask-type="alpha" maskUnits="userSpaceOnUse" x="35" y="56" width="209" height="184">
<rect x="35.0688" y="56.358" width="82.1677" height="183.384" rx="8" fill="#1673FF"/>
<path d="M145.406 133.782C145.406 130.115 150.004 128.429 152.454 131.199L242.178 232.637C244.455 235.211 242.628 239.219 239.178 239.219L149.453 239.219C147.221 239.219 145.406 237.425 145.406 235.221L145.406 133.782Z" fill="#1673FF"/>
</mask>
<g mask="url(#mask0)">
<ellipse cx="178.443" cy="153.007" rx="173.558" ry="152.82" fill="#0057CA"/>
<ellipse cx="147.42" cy="133.181" rx="142.536" ry="132.995" fill="#0062E3"/>
<ellipse cx="123.944" cy="112.53" rx="119.059" ry="112.344" fill="#006EFF"/>
<ellipse cx="103.821" cy="97.661" rx="98.9367" ry="97.4746" fill="#1178FF"/>
</g>
<g filter="url(#filter0_dd)">
<path d="M215.553 32.4251C219.448 32.4251 221.101 37.3507 217.967 39.6173L73.178 144.33C70.5183 146.254 66.7582 144.347 66.7669 141.08L67.0446 36.3669C67.0504 34.1843 68.8343 32.4253 71.0421 32.4253L215.553 32.4251Z" fill="#1673FF"/>
</g>
</g>
<defs>
<filter id="filter0_dd" x="52.7666" y="22.4252" width="180.842" height="140.674" filterUnits="userSpaceOnUse" color-interpolation-filters="sRGB">
<feFlood flood-opacity="0" result="BackgroundImageFix"/>
<feColorMatrix in="SourceAlpha" type="matrix" values="0 0 0 0 0 0 0 0 0 0 0 0 0 0 0 0 0 0 127 0"/>
<feOffset dy="4"/>
<feGaussianBlur stdDeviation="7"/>
<feColorMatrix type="matrix" values="0 0 0 0 0 0 0 0 0 0 0 0 0 0 0 0 0 0 0.39 0"/>
<feBlend mode="normal" in2="BackgroundImageFix" result="effect1_dropShadow"/>
<feColorMatrix in="SourceAlpha" type="matrix" values="0 0 0 0 0 0 0 0 0 0 0 0 0 0 0 0 0 0 127 0"/>
<feOffset dy="4"/>
<feGaussianBlur stdDeviation="2"/>
<feColorMatrix type="matrix" values="0 0 0 0 0 0 0 0 0 0 0 0 0 0 0 0 0 0 0.25 0"/>
<feBlend mode="normal" in2="effect1_dropShadow" result="effect2_dropShadow"/>
<feBlend mode="normal" in="SourceGraphic" in2="effect2_dropShadow" result="shape"/>
</filter>
<clipPath id="clip0">
<rect width="270" height="270" fill="white"/>
</clipPath>
</defs>
</svg>
