<svg width="534" height="144" viewBox="0 0 534 144" fill="none" xmlns="http://www.w3.org/2000/svg">
<g clip-path="url(#clip0)">
<path d="M237.595 29.2783V111.429H237.369L175.558 41.8213L175.671 109.508H170.247V27.5833H170.586L232.397 97.7563L232.284 29.2783H237.595ZM274.124 105.779C278.87 105.779 283.164 104.16 287.006 100.92L289.718 104.762C287.533 106.495 285.047 107.889 282.26 108.943C279.548 109.923 276.798 110.412 274.011 110.412C269.491 110.412 265.423 109.395 261.807 107.361C258.266 105.327 255.479 102.578 253.445 99.1123C251.486 95.5716 250.507 91.6166 250.507 87.2473C250.507 83.0286 251.562 79.149 253.671 75.6083C255.78 71.9923 258.643 69.1296 262.259 67.0203C265.875 64.911 269.83 63.8563 274.124 63.8563C279.247 63.8563 283.616 65.363 287.232 68.3763C290.848 71.3896 293.485 75.4576 295.142 80.5803L257.4 95.1573C258.831 98.3213 261.016 100.883 263.954 102.841C266.967 104.8 270.357 105.779 274.124 105.779ZM273.785 68.3763C270.47 68.3763 267.419 69.205 264.632 70.8623C261.845 72.5196 259.66 74.7796 258.078 77.6423C256.496 80.4296 255.705 83.556 255.705 87.0213C255.705 88.6033 255.856 89.997 256.157 91.2023L288.701 78.4333C287.27 75.42 285.273 73.0093 282.712 71.2013C280.151 69.318 277.175 68.3763 273.785 68.3763ZM314.047 45.8893V65.8903H327.72V70.1843H314.047V109.508H308.623V70.1843H299.244V65.8903H308.623V45.8893H314.047ZM378.705 23.6283V109.508H373.281V100.355C371.247 103.369 368.46 105.817 364.919 107.7C361.379 109.508 357.537 110.412 353.393 110.412C349.25 110.412 345.446 109.433 341.98 107.474C338.59 105.44 335.916 102.653 333.957 99.1123C331.999 95.4963 331.019 91.5036 331.019 87.1343C331.019 82.539 332.036 78.471 334.07 74.9303C336.104 71.3896 338.854 68.6776 342.319 66.7943C345.785 64.911 349.664 63.9693 353.958 63.9693C357.8 63.9693 361.492 64.911 365.032 66.7943C368.648 68.6776 371.436 71.1636 373.394 74.2523V23.6283H378.705ZM354.749 105.779C359.797 105.779 364.053 104.197 367.518 101.033C370.984 97.8693 372.905 93.8766 373.281 89.0553V83.4053C372.453 79.1113 370.268 75.533 366.727 72.6703C363.262 69.8076 359.269 68.3763 354.749 68.3763C351.359 68.3763 348.271 69.1673 345.483 70.7493C342.696 72.3313 340.474 74.5536 338.816 77.4163C337.159 80.2036 336.33 83.4053 336.33 87.0213C336.33 90.4113 337.159 93.5376 338.816 96.4003C340.474 99.263 342.696 101.561 345.483 103.293C348.346 104.951 351.435 105.779 354.749 105.779ZM412.438 105.779C417.184 105.779 421.478 104.16 425.32 100.92L428.032 104.762C425.848 106.495 423.362 107.889 420.574 108.943C417.862 109.923 415.113 110.412 412.325 110.412C407.805 110.412 403.737 109.395 400.121 107.361C396.581 105.327 393.793 102.578 391.759 99.1123C389.801 95.5716 388.821 91.6166 388.821 87.2473C388.821 83.0286 389.876 79.149 391.985 75.6083C394.095 71.9923 396.957 69.1296 400.573 67.0203C404.189 64.911 408.144 63.8563 412.438 63.8563C417.561 63.8563 421.93 65.363 425.546 68.3763C429.162 71.3896 431.799 75.4576 433.456 80.5803L395.714 95.1573C397.146 98.3213 399.33 100.883 402.268 102.841C405.282 104.8 408.672 105.779 412.438 105.779ZM412.099 68.3763C408.785 68.3763 405.734 69.205 402.946 70.8623C400.159 72.5196 397.974 74.7796 396.392 77.6423C394.81 80.4296 394.019 83.556 394.019 87.0213C394.019 88.6033 394.17 89.997 394.471 91.2023L427.015 78.4333C425.584 75.42 423.588 73.0093 421.026 71.2013C418.465 69.318 415.489 68.3763 412.099 68.3763ZM479.619 65.3253L457.697 111.203H457.019L434.645 65.3253H440.86L457.584 101.711L473.743 65.3253H479.619ZM525.282 65.3253L503.36 111.203H502.682L480.308 65.3253H486.523L503.247 101.711L519.406 65.3253H525.282Z" fill="#0061E0"/>
<mask id="mask0" mask-type="alpha" maskUnits="userSpaceOnUse" x="8" y="23" width="124" height="112">
<rect x="8.96777" y="23.5083" width="49" height="111" rx="8" fill="#1673FF"/>
<path d="M74.7662 74.6635C74.7662 70.9661 79.3526 69.248 81.7818 72.0355L130.172 127.563C132.427 130.151 130.589 134.191 127.156 134.191L78.7663 134.191C76.5571 134.191 74.7663 132.4 74.7663 130.191L74.7662 74.6635Z" fill="#1673FF"/>
</mask>
<g mask="url(#mask0)">
<ellipse cx="94.4678" cy="82.0083" rx="103.5" ry="92.5" fill="#0057CA"/>
<ellipse cx="75.9678" cy="70.0083" rx="85" ry="80.5" fill="#0062E3"/>
<ellipse cx="61.9678" cy="57.5083" rx="71" ry="68" fill="#006EFF"/>
<circle cx="49.9678" cy="48.5083" r="59" fill="#1178FF"/>
</g>
<g filter="url(#filter0_dd)">
<path d="M111.759 9.02206C115.624 9.02206 117.242 13.9595 114.126 16.2466L34.2459 74.8832C31.6001 76.8254 27.8704 74.9303 27.8789 71.6483L28.0322 13.0117C28.0379 10.8066 29.8271 9.02214 32.0321 9.02213L111.759 9.02206Z" fill="#1673FF"/>
</g>
</g>
<defs>
<filter id="filter0_dd" x="-13.2549" y="-37.3854" width="149.497" height="132.528" filterUnits="userSpaceOnUse" color-interpolation-filters="sRGB">
<feFlood flood-opacity="0" result="BackgroundImageFix"/>
<feColorMatrix in="SourceAlpha" type="matrix" values="0 0 0 0 0 0 0 0 0 0 0 0 0 0 0 0 0 0 127 0"/>
<feOffset dy="4"/>
<feGaussianBlur stdDeviation="7"/>
<feColorMatrix type="matrix" values="0 0 0 0 0 0 0 0 0 0 0 0 0 0 0 0 0 0 0.39 0"/>
<feBlend mode="normal" in2="BackgroundImageFix" result="effect1_dropShadow"/>
<feColorMatrix in="SourceAlpha" type="matrix" values="0 0 0 0 0 0 0 0 0 0 0 0 0 0 0 0 0 0 127 0"/>
<feOffset dy="4"/>
<feGaussianBlur stdDeviation="2"/>
<feColorMatrix type="matrix" values="0 0 0 0 0 0 0 0 0 0 0 0 0 0 0 0 0 0 0.25 0"/>
<feBlend mode="normal" in2="effect1_dropShadow" result="effect2_dropShadow"/>
<feBlend mode="normal" in="SourceGraphic" in2="effect2_dropShadow" result="shape"/>
</filter>
<clipPath id="clip0">
<rect width="534" height="144" fill="white"/>
</clipPath>
</defs>
</svg>
